<?xml version="1.0" encoding="utf-8"?>
<svg viewBox="11.685 112.792 440.861 103.345" width="440.861" height="103.345" xmlns="http://www.w3.org/2000/svg">
  <g style="" transform="matrix(0.996042, -0.005379, 0.417328, 0.968613, -44.075531, 74.432922)">
    <path d="M 38.372 44.767 H 437.21 V 142.442 H 38.372 V 44.767 Z" style="stroke: rgb(0, 0, 0);"/>
    <path d="M 64.046875 117.89512634277344 Q 57.2216796875 117.89512634277344 54.20556640625 114.49668884277344 Q 51.189453125 111.09825134277344 51.189453125 103.67832946777344 L 51.189453125 98.80723571777344 L 61.044921875 98.80723571777344 L 61.044921875 105.03770446777344 Q 61.044921875 106.76524353027344 61.56884765625 107.74229431152344 Q 62.0927734375 108.71934509277344 63.3955078125 108.71934509277344 Q 64.7548828125 108.71934509277344 65.27880859375 107.92637634277344 Q 65.802734375 107.13340759277344 65.802734375 105.32090759277344 Q 65.802734375 103.02696228027344 65.349609375 101.48350524902344 Q 64.896484375 99.94004821777344 63.77783203125 98.53819274902344 Q 62.6591796875 97.13633728027344 60.6767578125 95.26719665527344 L 56.2021484375 91.01914978027344 Q 51.189453125 86.28965759277344 51.189453125 80.20079040527344 Q 51.189453125 73.82872009277344 54.14892578125 70.48692321777344 Q 57.1083984375 67.14512634277344 62.7158203125 67.14512634277344 Q 69.5693359375 67.14512634277344 72.44384765625 70.79844665527344 Q 75.318359375 74.45176696777344 75.318359375 81.90000915527344 L 65.1796875 81.90000915527344 L 65.1796875 78.47325134277344 Q 65.1796875 77.45372009277344 64.59912109375 76.88731384277344 Q 64.0185546875 76.32090759277344 63.02734375 76.32090759277344 Q 61.837890625 76.32090759277344 61.28564453125 76.98643493652344 Q 60.7333984375 77.65196228027344 60.7333984375 78.69981384277344 Q 60.7333984375 79.74766540527344 61.2998046875 80.96543884277344 Q 61.8662109375 82.18321228027344 63.537109375 83.76914978027344 L 69.2861328125 89.29161071777344 Q 71.013671875 90.93418884277344 72.4580078125 92.76084899902344 Q 73.90234375 94.58750915527344 74.7802734375 97.00889587402344 Q 75.658203125 99.43028259277344 75.658203125 102.91368103027344 Q 75.658203125 109.93711853027344 73.06689453125 113.91612243652344 Q 70.4755859375 117.89512634277344 64.046875 117.89512634277344 Z M 78.16898345947266 117.44200134277344 L 78.16898345947266 67.59825134277344 L 88.02445220947266 67.59825134277344 L 88.02445220947266 87.56407165527344 L 92.66898345947266 67.59825134277344 L 102.69437408447266 67.59825134277344 L 97.11527252197266 90.42442321777344 L 103.85550689697266 117.44200134277344 L 93.51859283447266 117.44200134277344 L 88.08109283447266 93.31309509277344 L 88.08109283447266 117.44200134277344 Z M 103.39685821533203 117.44200134277344 L 108.21131134033203 67.59825134277344 L 125.11853790283203 67.59825134277344 L 129.84803009033203 117.44200134277344 L 120.41736602783203 117.44200134277344 L 119.70935821533203 109.39903259277344 L 113.70545196533203 109.39903259277344 L 113.08240509033203 117.44200134277344 Z M 114.41345977783203 101.44102478027344 L 118.94470977783203 101.44102478027344 L 116.76404571533203 76.09434509277344 L 116.31092071533203 76.09434509277344 Z M 135.64361572265625 117.44200134277344 L 135.64361572265625 77.17051696777344 L 129.72467041015625 77.17051696777344 L 129.72467041015625 67.59825134277344 L 151.53131103515625 67.59825134277344 L 151.53131103515625 77.17051696777344 L 145.61236572265625 77.17051696777344 L 145.61236572265625 117.44200134277344 Z M 153.5066680908203 117.44200134277344 L 153.5066680908203 67.59825134277344 L 173.4441680908203 67.59825134277344 L 173.4441680908203 77.22715759277344 L 163.6453399658203 77.22715759277344 L 163.6453399658203 86.94102478027344 L 173.0476837158203 86.94102478027344 L 173.0476837158203 96.31504821777344 L 163.6453399658203 96.31504821777344 L 163.6453399658203 107.72813415527344 L 174.0955352783203 107.72813415527344 L 174.0955352783203 117.44200134277344 Z M 176.58221435546875 117.44200134277344 L 176.58221435546875 67.59825134277344 L 190.09100341796875 67.59825134277344 Q 195.52850341796875 67.59825134277344 198.00653076171875 70.24620056152344 Q 200.48455810546875 72.89414978027344 200.48455810546875 78.98301696777344 L 200.48455810546875 81.16368103027344 Q 200.48455810546875 84.67539978027344 199.22430419921875 86.85606384277344 Q 197.96405029296875 89.03672790527344 195.38690185546875 89.71641540527344 Q 198.75701904296875 90.56602478027344 199.90399169921875 93.69541931152344 Q 201.05096435546875 96.82481384277344 201.05096435546875 101.32774353027344 Q 201.05096435546875 106.17051696777344 200.14471435546875 109.79551696777344 Q 199.23846435546875 113.42051696777344 196.85955810546875 115.43125915527344 Q 194.48065185546875 117.44200134277344 190.09100341796875 117.44200134277344 Z M 186.32440185546875 86.37461853027344 L 188.36346435546875 86.37461853027344 Q 189.75115966796875 86.37461853027344 190.14764404296875 85.29844665527344 Q 190.54412841796875 84.22227478027344 190.54412841796875 82.72129821777344 L 190.54412841796875 77.70860290527344 Q 190.54412841796875 75.30137634277344 188.42010498046875 75.30137634277344 L 186.32440185546875 75.30137634277344 Z M 187.31561279296875 108.66270446777344 Q 191.19549560546875 108.66270446777344 191.19549560546875 104.98106384277344 L 191.19549560546875 98.75059509277344 Q 191.19549560546875 96.62657165527344 190.55828857421875 95.39463806152344 Q 189.92108154296875 94.16270446777344 188.16522216796875 94.16270446777344 L 186.32440185546875 94.16270446777344 L 186.32440185546875 108.60606384277344 Q 186.94744873046875 108.66270446777344 187.31561279296875 108.66270446777344 Z M 203.53536987304688 117.44200134277344 L 203.53536987304688 67.59825134277344 L 213.50411987304688 67.59825134277344 L 213.50411987304688 108.94590759277344 L 223.75607299804688 108.94590759277344 L 223.75607299804688 117.44200134277344 Z M 237.68336486816406 117.89512634277344 Q 231.70777893066406 117.89512634277344 228.55006408691406 114.28428649902344 Q 225.39234924316406 110.67344665527344 225.39234924316406 103.84825134277344 L 225.39234924316406 80.17247009277344 Q 225.39234924316406 73.77207946777344 228.52174377441406 70.45860290527344 Q 231.65113830566406 67.14512634277344 237.68336486816406 67.14512634277344 Q 243.71559143066406 67.14512634277344 246.84498596191406 70.45860290527344 Q 249.97438049316406 73.77207946777344 249.97438049316406 80.17247009277344 L 249.97438049316406 103.84825134277344 Q 249.97438049316406 110.67344665527344 246.81666564941406 114.28428649902344 Q 243.65895080566406 117.89512634277344 237.68336486816406 117.89512634277344 Z M 237.76832580566406 108.71934509277344 Q 240.03395080566406 108.71934509277344 240.03395080566406 104.32969665527344 L 240.03395080566406 80.00254821777344 Q 240.03395080566406 76.32090759277344 237.82496643066406 76.32090759277344 Q 235.33277893066406 76.32090759277344 235.33277893066406 80.08750915527344 L 235.33277893066406 104.38633728027344 Q 235.33277893066406 106.70860290527344 235.89918518066406 107.71397399902344 Q 236.46559143066406 108.71934509277344 237.76832580566406 108.71934509277344 Z M 263.4737091064453 117.89512634277344 Q 252.7969512939453 117.89512634277344 252.7969512939453 102.60215759277344 L 252.7969512939453 81.10704040527344 Q 252.7969512939453 67.14512634277344 265.0313262939453 67.14512634277344 Q 270.0723419189453 67.14512634277344 272.7627716064453 69.17002868652344 Q 275.4532012939453 71.19493103027344 276.4727325439453 75.07481384277344 Q 277.4922637939453 78.95469665527344 277.4922637939453 84.53379821777344 L 267.7500762939453 84.53379821777344 L 267.7500762939453 80.11582946777344 Q 267.7500762939453 78.50157165527344 267.3111114501953 77.41123962402344 Q 266.8721466064453 76.32090759277344 265.4844512939453 76.32090759277344 Q 263.7569122314453 76.32090759277344 263.2046661376953 77.48204040527344 Q 262.6524200439453 78.64317321777344 262.6524200439453 80.03086853027344 L 262.6524200439453 104.18809509277344 Q 262.6524200439453 106.19883728027344 263.1763458251953 107.45909118652344 Q 263.7002716064453 108.71934509277344 265.2295684814453 108.71934509277344 Q 266.8155059814453 108.71934509277344 267.3394317626953 107.45909118652344 Q 267.8633575439453 106.19883728027344 267.8633575439453 104.13145446777344 L 267.8633575439453 97.02305603027344 L 265.2012481689453 97.02305603027344 L 265.2012481689453 88.41368103027344 L 277.3789825439453 88.41368103027344 L 277.3789825439453 117.44200134277344 L 273.3858184814453 117.44200134277344 L 271.6865997314453 113.25059509277344 Q 269.0811309814453 117.89512634277344 263.4737091064453 117.89512634277344 Z" transform="matrix(1.6171770095825195, 0, 0, 2.0586891174316406, -30.653596878051758, -96.20092010498047)" style="fill: rgb(255, 247, 247); text-transform: uppercase; white-space: pre;"/>
  </g>
</svg>